REM MD5 e47ae5bf860ac3d0fc7caf507c9fdff5
FILE "Australian Summer Special (Australia).bin" BINARY
  TRACK 01 MODE2/2352
    INDEX 01 00:00:00
  TRACK 02 AUDIO
    INDEX 00 42:24:27
    INDEX 01 42:26:27
  TRACK 03 AUDIO
    INDEX 00 47:49:16
    INDEX 01 47:51:16
REM LEADOUT 50:52:47
